<mxfile host="app.diagrams.net" modified="2024-02-05T20:11:59.781Z" agent="Mozilla/5.0 (Macintosh; Intel Mac OS X 10_15_7) AppleWebKit/537.36 (KHTML, like Gecko) Chrome/121.0.0.0 Safari/537.36" etag="XSNPVoMhOj15y-GVG0ll" version="23.1.1" type="github">
  <diagram name="Page-1" id="hIHVy5FgZgw4W-eZyw8X">
    <mxGraphModel dx="1034" dy="505" grid="1" gridSize="10" guides="1" tooltips="1" connect="1" arrows="1" fold="1" page="1" pageScale="1" pageWidth="850" pageHeight="1100" math="0" shadow="0">
      <root>
        <mxCell id="0" />
        <mxCell id="1" parent="0" />
        <mxCell id="u85HrKHD46vmr78Bl2Hf-1" value="Patients" style="rounded=0;whiteSpace=wrap;html=1;" parent="1" vertex="1">
          <mxGeometry x="255" y="600" width="120" height="60" as="geometry" />
        </mxCell>
        <mxCell id="u85HrKHD46vmr78Bl2Hf-2" value="Doctors" style="rounded=0;whiteSpace=wrap;html=1;" parent="1" vertex="1">
          <mxGeometry x="255" y="350" width="120" height="60" as="geometry" />
        </mxCell>
        <mxCell id="u85HrKHD46vmr78Bl2Hf-3" value="Pharmacy" style="rounded=0;whiteSpace=wrap;html=1;" parent="1" vertex="1">
          <mxGeometry x="570" y="550" width="120" height="60" as="geometry" />
        </mxCell>
        <mxCell id="u85HrKHD46vmr78Bl2Hf-4" value="Pharmaceutical Company" style="rounded=0;whiteSpace=wrap;html=1;" parent="1" vertex="1">
          <mxGeometry x="830" y="350" width="120" height="60" as="geometry" />
        </mxCell>
        <mxCell id="u85HrKHD46vmr78Bl2Hf-5" value="Drug" style="rounded=0;whiteSpace=wrap;html=1;" parent="1" vertex="1">
          <mxGeometry x="570" y="350" width="120" height="60" as="geometry" />
        </mxCell>
        <mxCell id="XBV9Z7H60nWluRdTG7Ji-1" value="&lt;u&gt;Patient&lt;br&gt;SSN&lt;/u&gt;" style="ellipse;whiteSpace=wrap;html=1;" parent="1" vertex="1">
          <mxGeometry x="165" y="690" width="70" height="40" as="geometry" />
        </mxCell>
        <mxCell id="XBV9Z7H60nWluRdTG7Ji-2" value="Patient Name" style="ellipse;whiteSpace=wrap;html=1;" parent="1" vertex="1">
          <mxGeometry x="235" y="690" width="70" height="40" as="geometry" />
        </mxCell>
        <mxCell id="XBV9Z7H60nWluRdTG7Ji-3" value="Patient Address" style="ellipse;whiteSpace=wrap;html=1;" parent="1" vertex="1">
          <mxGeometry x="320" y="690" width="70" height="40" as="geometry" />
        </mxCell>
        <mxCell id="XBV9Z7H60nWluRdTG7Ji-4" value="Age" style="ellipse;whiteSpace=wrap;html=1;" parent="1" vertex="1">
          <mxGeometry x="390" y="690" width="70" height="40" as="geometry" />
        </mxCell>
        <mxCell id="XBV9Z7H60nWluRdTG7Ji-5" value="&lt;u&gt;Doctor&lt;br&gt;SSN&lt;/u&gt;" style="ellipse;whiteSpace=wrap;html=1;" parent="1" vertex="1">
          <mxGeometry x="185" y="290" width="70" height="40" as="geometry" />
        </mxCell>
        <mxCell id="XBV9Z7H60nWluRdTG7Ji-6" value="Doctor Name" style="ellipse;whiteSpace=wrap;html=1;" parent="1" vertex="1">
          <mxGeometry x="255" y="290" width="70" height="40" as="geometry" />
        </mxCell>
        <mxCell id="XBV9Z7H60nWluRdTG7Ji-7" value="Doctor Specialty" style="ellipse;whiteSpace=wrap;html=1;" parent="1" vertex="1">
          <mxGeometry x="325" y="290" width="70" height="40" as="geometry" />
        </mxCell>
        <mxCell id="XBV9Z7H60nWluRdTG7Ji-8" value="Doctor YOE" style="ellipse;whiteSpace=wrap;html=1;" parent="1" vertex="1">
          <mxGeometry x="395" y="290" width="70" height="40" as="geometry" />
        </mxCell>
        <mxCell id="XBV9Z7H60nWluRdTG7Ji-9" value="Pharma Name" style="ellipse;whiteSpace=wrap;html=1;" parent="1" vertex="1">
          <mxGeometry x="800" y="290" width="70" height="40" as="geometry" />
        </mxCell>
        <mxCell id="XBV9Z7H60nWluRdTG7Ji-10" value="Pharma Number" style="ellipse;whiteSpace=wrap;html=1;" parent="1" vertex="1">
          <mxGeometry x="910" y="290" width="70" height="40" as="geometry" />
        </mxCell>
        <mxCell id="XBV9Z7H60nWluRdTG7Ji-11" value="&lt;u&gt;Trade Name&lt;/u&gt;" style="ellipse;whiteSpace=wrap;html=1;" parent="1" vertex="1">
          <mxGeometry x="510" y="290" width="70" height="40" as="geometry" />
        </mxCell>
        <mxCell id="XBV9Z7H60nWluRdTG7Ji-12" value="Formula" style="ellipse;whiteSpace=wrap;html=1;" parent="1" vertex="1">
          <mxGeometry x="595" y="290" width="70" height="40" as="geometry" />
        </mxCell>
        <mxCell id="XBV9Z7H60nWluRdTG7Ji-13" value="Pharmacy Name" style="ellipse;whiteSpace=wrap;html=1;" parent="1" vertex="1">
          <mxGeometry x="530" y="630" width="70" height="40" as="geometry" />
        </mxCell>
        <mxCell id="XBV9Z7H60nWluRdTG7Ji-14" value="Pharmacy Address" style="ellipse;whiteSpace=wrap;html=1;" parent="1" vertex="1">
          <mxGeometry x="600" y="630" width="70" height="40" as="geometry" />
        </mxCell>
        <mxCell id="XBV9Z7H60nWluRdTG7Ji-15" value="Pharmacy Number" style="ellipse;whiteSpace=wrap;html=1;" parent="1" vertex="1">
          <mxGeometry x="670" y="630" width="70" height="40" as="geometry" />
        </mxCell>
        <mxCell id="XBV9Z7H60nWluRdTG7Ji-16" value="Drug Price" style="ellipse;whiteSpace=wrap;html=1;" parent="1" vertex="1">
          <mxGeometry x="690" y="290" width="70" height="40" as="geometry" />
        </mxCell>
        <mxCell id="XBV9Z7H60nWluRdTG7Ji-17" value="Prescribe" style="rhombus;whiteSpace=wrap;html=1;" parent="1" vertex="1">
          <mxGeometry x="430" y="340" width="80" height="80" as="geometry" />
        </mxCell>
        <mxCell id="XBV9Z7H60nWluRdTG7Ji-18" value="Sold By" style="rhombus;whiteSpace=wrap;html=1;" parent="1" vertex="1">
          <mxGeometry x="590" y="435" width="80" height="80" as="geometry" />
        </mxCell>
        <mxCell id="XBV9Z7H60nWluRdTG7Ji-21" value="Prescription&amp;nbsp;" style="rounded=0;whiteSpace=wrap;html=1;" parent="1" vertex="1">
          <mxGeometry x="400" y="460" width="120" height="60" as="geometry" />
        </mxCell>
        <mxCell id="XBV9Z7H60nWluRdTG7Ji-23" value="Prescription Date" style="ellipse;whiteSpace=wrap;html=1;" parent="1" vertex="1">
          <mxGeometry x="380" y="540" width="70" height="40" as="geometry" />
        </mxCell>
        <mxCell id="XBV9Z7H60nWluRdTG7Ji-24" value="Prescription Quantity" style="ellipse;whiteSpace=wrap;html=1;" parent="1" vertex="1">
          <mxGeometry x="480" y="540" width="70" height="40" as="geometry" />
        </mxCell>
        <mxCell id="eyoDhnTimMxMoN-iE7wG-2" value="" style="endArrow=none;html=1;rounded=0;entryX=0.5;entryY=1;entryDx=0;entryDy=0;" edge="1" parent="1" source="XBV9Z7H60nWluRdTG7Ji-18" target="u85HrKHD46vmr78Bl2Hf-5">
          <mxGeometry width="50" height="50" relative="1" as="geometry">
            <mxPoint x="720" y="410" as="sourcePoint" />
            <mxPoint x="730" y="500" as="targetPoint" />
          </mxGeometry>
        </mxCell>
        <mxCell id="eyoDhnTimMxMoN-iE7wG-3" value="" style="endArrow=none;html=1;rounded=0;exitX=0.5;exitY=0;exitDx=0;exitDy=0;" edge="1" parent="1" source="u85HrKHD46vmr78Bl2Hf-1">
          <mxGeometry width="50" height="50" relative="1" as="geometry">
            <mxPoint x="730" y="530" as="sourcePoint" />
            <mxPoint x="315" y="460" as="targetPoint" />
          </mxGeometry>
        </mxCell>
        <mxCell id="eyoDhnTimMxMoN-iE7wG-5" value="" style="endArrow=none;html=1;rounded=0;entryX=0.5;entryY=1;entryDx=0;entryDy=0;exitX=0.5;exitY=0;exitDx=0;exitDy=0;" edge="1" parent="1" source="u85HrKHD46vmr78Bl2Hf-3" target="XBV9Z7H60nWluRdTG7Ji-18">
          <mxGeometry width="50" height="50" relative="1" as="geometry">
            <mxPoint x="790" y="530" as="sourcePoint" />
            <mxPoint x="750" y="480" as="targetPoint" />
          </mxGeometry>
        </mxCell>
        <mxCell id="eyoDhnTimMxMoN-iE7wG-10" value="" style="endArrow=none;html=1;rounded=0;entryX=0.5;entryY=1;entryDx=0;entryDy=0;exitX=0.5;exitY=0;exitDx=0;exitDy=0;" edge="1" parent="1" target="u85HrKHD46vmr78Bl2Hf-2">
          <mxGeometry width="50" height="50" relative="1" as="geometry">
            <mxPoint x="315" y="460" as="sourcePoint" />
            <mxPoint x="325" y="550" as="targetPoint" />
          </mxGeometry>
        </mxCell>
        <mxCell id="eyoDhnTimMxMoN-iE7wG-11" value="" style="endArrow=none;html=1;rounded=0;entryX=1;entryY=0.5;entryDx=0;entryDy=0;exitX=0;exitY=0.5;exitDx=0;exitDy=0;" edge="1" parent="1" source="XBV9Z7H60nWluRdTG7Ji-17" target="u85HrKHD46vmr78Bl2Hf-2">
          <mxGeometry width="50" height="50" relative="1" as="geometry">
            <mxPoint x="325" y="470" as="sourcePoint" />
            <mxPoint x="325" y="380" as="targetPoint" />
          </mxGeometry>
        </mxCell>
        <mxCell id="eyoDhnTimMxMoN-iE7wG-12" value="" style="endArrow=none;html=1;rounded=0;entryX=1;entryY=0.5;entryDx=0;entryDy=0;exitX=0;exitY=0.5;exitDx=0;exitDy=0;" edge="1" parent="1" source="u85HrKHD46vmr78Bl2Hf-5" target="XBV9Z7H60nWluRdTG7Ji-17">
          <mxGeometry width="50" height="50" relative="1" as="geometry">
            <mxPoint x="435" y="350" as="sourcePoint" />
            <mxPoint x="385" y="350" as="targetPoint" />
          </mxGeometry>
        </mxCell>
        <mxCell id="eyoDhnTimMxMoN-iE7wG-15" value="Contract" style="rounded=0;whiteSpace=wrap;html=1;" vertex="1" parent="1">
          <mxGeometry x="820" y="520" width="120" height="60" as="geometry" />
        </mxCell>
        <mxCell id="eyoDhnTimMxMoN-iE7wG-16" value="" style="endArrow=none;html=1;rounded=0;exitX=1;exitY=0;exitDx=0;exitDy=0;entryX=0;entryY=1;entryDx=0;entryDy=0;" edge="1" parent="1" source="u85HrKHD46vmr78Bl2Hf-3" target="u85HrKHD46vmr78Bl2Hf-4">
          <mxGeometry width="50" height="50" relative="1" as="geometry">
            <mxPoint x="770" y="630" as="sourcePoint" />
            <mxPoint x="780" y="490" as="targetPoint" />
          </mxGeometry>
        </mxCell>
        <mxCell id="eyoDhnTimMxMoN-iE7wG-19" value="" style="endArrow=none;html=1;rounded=0;" edge="1" parent="1">
          <mxGeometry width="50" height="50" relative="1" as="geometry">
            <mxPoint x="400" y="490" as="sourcePoint" />
            <mxPoint x="310" y="490" as="targetPoint" />
          </mxGeometry>
        </mxCell>
        <mxCell id="eyoDhnTimMxMoN-iE7wG-20" value="" style="endArrow=none;html=1;rounded=0;exitX=0.5;exitY=0;exitDx=0;exitDy=0;" edge="1" parent="1" source="eyoDhnTimMxMoN-iE7wG-15">
          <mxGeometry width="50" height="50" relative="1" as="geometry">
            <mxPoint x="700" y="560" as="sourcePoint" />
            <mxPoint x="770" y="470" as="targetPoint" />
          </mxGeometry>
        </mxCell>
        <mxCell id="eyoDhnTimMxMoN-iE7wG-21" value="Signs" style="text;html=1;align=center;verticalAlign=middle;resizable=0;points=[];autosize=1;strokeColor=none;fillColor=none;rotation=-45;" vertex="1" parent="1">
          <mxGeometry x="730" y="450" width="50" height="30" as="geometry" />
        </mxCell>
        <mxCell id="eyoDhnTimMxMoN-iE7wG-23" value="" style="endArrow=none;html=1;rounded=0;exitX=0.5;exitY=0;exitDx=0;exitDy=0;entryX=0.25;entryY=1;entryDx=0;entryDy=0;" edge="1" parent="1" source="XBV9Z7H60nWluRdTG7Ji-1" target="u85HrKHD46vmr78Bl2Hf-1">
          <mxGeometry width="50" height="50" relative="1" as="geometry">
            <mxPoint x="180" y="690" as="sourcePoint" />
            <mxPoint x="230" y="640" as="targetPoint" />
          </mxGeometry>
        </mxCell>
        <mxCell id="eyoDhnTimMxMoN-iE7wG-24" value="" style="endArrow=none;html=1;rounded=0;exitX=0.5;exitY=0;exitDx=0;exitDy=0;entryX=0.25;entryY=1;entryDx=0;entryDy=0;" edge="1" parent="1" source="XBV9Z7H60nWluRdTG7Ji-2" target="u85HrKHD46vmr78Bl2Hf-1">
          <mxGeometry width="50" height="50" relative="1" as="geometry">
            <mxPoint x="210" y="700" as="sourcePoint" />
            <mxPoint x="295" y="670" as="targetPoint" />
          </mxGeometry>
        </mxCell>
        <mxCell id="eyoDhnTimMxMoN-iE7wG-25" value="" style="endArrow=none;html=1;rounded=0;exitX=0.5;exitY=0;exitDx=0;exitDy=0;entryX=0.75;entryY=1;entryDx=0;entryDy=0;" edge="1" parent="1" source="XBV9Z7H60nWluRdTG7Ji-4" target="u85HrKHD46vmr78Bl2Hf-1">
          <mxGeometry width="50" height="50" relative="1" as="geometry">
            <mxPoint x="280" y="700" as="sourcePoint" />
            <mxPoint x="295" y="670" as="targetPoint" />
          </mxGeometry>
        </mxCell>
        <mxCell id="eyoDhnTimMxMoN-iE7wG-26" value="" style="endArrow=none;html=1;rounded=0;exitX=0.5;exitY=0;exitDx=0;exitDy=0;entryX=0.75;entryY=1;entryDx=0;entryDy=0;" edge="1" parent="1" source="XBV9Z7H60nWluRdTG7Ji-3" target="u85HrKHD46vmr78Bl2Hf-1">
          <mxGeometry width="50" height="50" relative="1" as="geometry">
            <mxPoint x="435" y="700" as="sourcePoint" />
            <mxPoint x="355" y="670" as="targetPoint" />
          </mxGeometry>
        </mxCell>
        <mxCell id="eyoDhnTimMxMoN-iE7wG-27" value="" style="endArrow=none;html=1;rounded=0;entryX=0.5;entryY=1;entryDx=0;entryDy=0;exitX=0.25;exitY=0;exitDx=0;exitDy=0;" edge="1" parent="1" source="u85HrKHD46vmr78Bl2Hf-2" target="XBV9Z7H60nWluRdTG7Ji-5">
          <mxGeometry width="50" height="50" relative="1" as="geometry">
            <mxPoint x="190" y="390" as="sourcePoint" />
            <mxPoint x="240" y="340" as="targetPoint" />
          </mxGeometry>
        </mxCell>
        <mxCell id="eyoDhnTimMxMoN-iE7wG-28" value="" style="endArrow=none;html=1;rounded=0;entryX=0.5;entryY=1;entryDx=0;entryDy=0;" edge="1" parent="1" source="u85HrKHD46vmr78Bl2Hf-2" target="XBV9Z7H60nWluRdTG7Ji-6">
          <mxGeometry width="50" height="50" relative="1" as="geometry">
            <mxPoint x="290" y="350" as="sourcePoint" />
            <mxPoint x="230" y="340" as="targetPoint" />
          </mxGeometry>
        </mxCell>
        <mxCell id="eyoDhnTimMxMoN-iE7wG-29" value="" style="endArrow=none;html=1;rounded=0;entryX=0.5;entryY=1;entryDx=0;entryDy=0;exitX=0.75;exitY=0;exitDx=0;exitDy=0;" edge="1" parent="1" source="u85HrKHD46vmr78Bl2Hf-2" target="XBV9Z7H60nWluRdTG7Ji-7">
          <mxGeometry width="50" height="50" relative="1" as="geometry">
            <mxPoint x="310" y="360" as="sourcePoint" />
            <mxPoint x="300" y="340" as="targetPoint" />
          </mxGeometry>
        </mxCell>
        <mxCell id="eyoDhnTimMxMoN-iE7wG-30" value="" style="endArrow=none;html=1;rounded=0;entryX=0.5;entryY=1;entryDx=0;entryDy=0;exitX=1;exitY=0;exitDx=0;exitDy=0;" edge="1" parent="1" source="u85HrKHD46vmr78Bl2Hf-2" target="XBV9Z7H60nWluRdTG7Ji-8">
          <mxGeometry width="50" height="50" relative="1" as="geometry">
            <mxPoint x="355" y="360" as="sourcePoint" />
            <mxPoint x="370" y="340" as="targetPoint" />
          </mxGeometry>
        </mxCell>
        <mxCell id="eyoDhnTimMxMoN-iE7wG-31" value="" style="endArrow=none;html=1;rounded=0;entryX=0.5;entryY=1;entryDx=0;entryDy=0;exitX=0.25;exitY=0;exitDx=0;exitDy=0;" edge="1" parent="1" source="u85HrKHD46vmr78Bl2Hf-5" target="XBV9Z7H60nWluRdTG7Ji-11">
          <mxGeometry width="50" height="50" relative="1" as="geometry">
            <mxPoint x="520" y="390" as="sourcePoint" />
            <mxPoint x="570" y="340" as="targetPoint" />
          </mxGeometry>
        </mxCell>
        <mxCell id="eyoDhnTimMxMoN-iE7wG-32" value="" style="endArrow=none;html=1;rounded=0;entryX=0.5;entryY=1;entryDx=0;entryDy=0;exitX=0.5;exitY=0;exitDx=0;exitDy=0;" edge="1" parent="1" source="u85HrKHD46vmr78Bl2Hf-5" target="XBV9Z7H60nWluRdTG7Ji-12">
          <mxGeometry width="50" height="50" relative="1" as="geometry">
            <mxPoint x="610" y="360" as="sourcePoint" />
            <mxPoint x="555" y="340" as="targetPoint" />
          </mxGeometry>
        </mxCell>
        <mxCell id="eyoDhnTimMxMoN-iE7wG-33" value="" style="endArrow=none;html=1;rounded=0;entryX=0.5;entryY=1;entryDx=0;entryDy=0;exitX=0.75;exitY=0;exitDx=0;exitDy=0;" edge="1" parent="1" source="u85HrKHD46vmr78Bl2Hf-5" target="XBV9Z7H60nWluRdTG7Ji-16">
          <mxGeometry width="50" height="50" relative="1" as="geometry">
            <mxPoint x="640" y="360" as="sourcePoint" />
            <mxPoint x="625" y="340" as="targetPoint" />
          </mxGeometry>
        </mxCell>
        <mxCell id="eyoDhnTimMxMoN-iE7wG-34" value="" style="endArrow=none;html=1;rounded=0;entryX=0.5;entryY=1;entryDx=0;entryDy=0;exitX=0.5;exitY=0;exitDx=0;exitDy=0;" edge="1" parent="1" source="u85HrKHD46vmr78Bl2Hf-4" target="XBV9Z7H60nWluRdTG7Ji-9">
          <mxGeometry width="50" height="50" relative="1" as="geometry">
            <mxPoint x="770" y="420" as="sourcePoint" />
            <mxPoint x="820" y="370" as="targetPoint" />
          </mxGeometry>
        </mxCell>
        <mxCell id="eyoDhnTimMxMoN-iE7wG-35" value="" style="endArrow=none;html=1;rounded=0;entryX=0.5;entryY=1;entryDx=0;entryDy=0;exitX=0.5;exitY=0;exitDx=0;exitDy=0;" edge="1" parent="1" source="u85HrKHD46vmr78Bl2Hf-4" target="XBV9Z7H60nWluRdTG7Ji-10">
          <mxGeometry width="50" height="50" relative="1" as="geometry">
            <mxPoint x="900" y="360" as="sourcePoint" />
            <mxPoint x="865" y="340" as="targetPoint" />
          </mxGeometry>
        </mxCell>
        <mxCell id="eyoDhnTimMxMoN-iE7wG-36" value="" style="endArrow=none;html=1;rounded=0;entryX=0.5;entryY=1;entryDx=0;entryDy=0;exitX=0.5;exitY=0;exitDx=0;exitDy=0;" edge="1" parent="1" source="XBV9Z7H60nWluRdTG7Ji-23" target="XBV9Z7H60nWluRdTG7Ji-21">
          <mxGeometry width="50" height="50" relative="1" as="geometry">
            <mxPoint x="360" y="590" as="sourcePoint" />
            <mxPoint x="410" y="540" as="targetPoint" />
          </mxGeometry>
        </mxCell>
        <mxCell id="eyoDhnTimMxMoN-iE7wG-37" value="" style="endArrow=none;html=1;rounded=0;entryX=0.5;entryY=1;entryDx=0;entryDy=0;exitX=0.5;exitY=0;exitDx=0;exitDy=0;" edge="1" parent="1" source="XBV9Z7H60nWluRdTG7Ji-24" target="XBV9Z7H60nWluRdTG7Ji-21">
          <mxGeometry width="50" height="50" relative="1" as="geometry">
            <mxPoint x="445" y="550" as="sourcePoint" />
            <mxPoint x="470" y="530" as="targetPoint" />
          </mxGeometry>
        </mxCell>
        <mxCell id="eyoDhnTimMxMoN-iE7wG-38" value="" style="endArrow=none;html=1;rounded=0;entryX=0.25;entryY=1;entryDx=0;entryDy=0;exitX=0.5;exitY=0;exitDx=0;exitDy=0;" edge="1" parent="1" source="XBV9Z7H60nWluRdTG7Ji-13" target="u85HrKHD46vmr78Bl2Hf-3">
          <mxGeometry width="50" height="50" relative="1" as="geometry">
            <mxPoint x="420" y="650" as="sourcePoint" />
            <mxPoint x="470" y="600" as="targetPoint" />
          </mxGeometry>
        </mxCell>
        <mxCell id="eyoDhnTimMxMoN-iE7wG-39" value="" style="endArrow=none;html=1;rounded=0;entryX=0.5;entryY=1;entryDx=0;entryDy=0;exitX=0.5;exitY=0;exitDx=0;exitDy=0;" edge="1" parent="1" source="XBV9Z7H60nWluRdTG7Ji-14" target="u85HrKHD46vmr78Bl2Hf-3">
          <mxGeometry width="50" height="50" relative="1" as="geometry">
            <mxPoint x="575" y="640" as="sourcePoint" />
            <mxPoint x="610" y="620" as="targetPoint" />
          </mxGeometry>
        </mxCell>
        <mxCell id="eyoDhnTimMxMoN-iE7wG-40" value="" style="endArrow=none;html=1;rounded=0;entryX=0.75;entryY=1;entryDx=0;entryDy=0;exitX=0.5;exitY=0;exitDx=0;exitDy=0;" edge="1" parent="1" source="XBV9Z7H60nWluRdTG7Ji-15" target="u85HrKHD46vmr78Bl2Hf-3">
          <mxGeometry width="50" height="50" relative="1" as="geometry">
            <mxPoint x="645" y="640" as="sourcePoint" />
            <mxPoint x="640" y="620" as="targetPoint" />
          </mxGeometry>
        </mxCell>
        <mxCell id="eyoDhnTimMxMoN-iE7wG-41" value="Contract Text" style="ellipse;whiteSpace=wrap;html=1;" vertex="1" parent="1">
          <mxGeometry x="940" y="600" width="70" height="40" as="geometry" />
        </mxCell>
        <mxCell id="eyoDhnTimMxMoN-iE7wG-42" value="End Date" style="ellipse;whiteSpace=wrap;html=1;" vertex="1" parent="1">
          <mxGeometry x="860" y="600" width="70" height="40" as="geometry" />
        </mxCell>
        <mxCell id="eyoDhnTimMxMoN-iE7wG-43" value="Start Date" style="ellipse;whiteSpace=wrap;html=1;" vertex="1" parent="1">
          <mxGeometry x="780" y="600" width="70" height="40" as="geometry" />
        </mxCell>
        <mxCell id="eyoDhnTimMxMoN-iE7wG-44" value="" style="endArrow=none;html=1;rounded=0;entryX=0.25;entryY=1;entryDx=0;entryDy=0;exitX=0.5;exitY=0;exitDx=0;exitDy=0;" edge="1" parent="1" source="eyoDhnTimMxMoN-iE7wG-43" target="eyoDhnTimMxMoN-iE7wG-15">
          <mxGeometry width="50" height="50" relative="1" as="geometry">
            <mxPoint x="750" y="630" as="sourcePoint" />
            <mxPoint x="800" y="580" as="targetPoint" />
          </mxGeometry>
        </mxCell>
        <mxCell id="eyoDhnTimMxMoN-iE7wG-45" value="" style="endArrow=none;html=1;rounded=0;entryX=0.5;entryY=1;entryDx=0;entryDy=0;exitX=0.5;exitY=0;exitDx=0;exitDy=0;" edge="1" parent="1" source="eyoDhnTimMxMoN-iE7wG-42" target="eyoDhnTimMxMoN-iE7wG-15">
          <mxGeometry width="50" height="50" relative="1" as="geometry">
            <mxPoint x="825" y="610" as="sourcePoint" />
            <mxPoint x="860" y="590" as="targetPoint" />
          </mxGeometry>
        </mxCell>
        <mxCell id="eyoDhnTimMxMoN-iE7wG-46" value="" style="endArrow=none;html=1;rounded=0;entryX=0.75;entryY=1;entryDx=0;entryDy=0;exitX=0.5;exitY=0;exitDx=0;exitDy=0;" edge="1" parent="1" source="eyoDhnTimMxMoN-iE7wG-41" target="eyoDhnTimMxMoN-iE7wG-15">
          <mxGeometry width="50" height="50" relative="1" as="geometry">
            <mxPoint x="905" y="610" as="sourcePoint" />
            <mxPoint x="890" y="590" as="targetPoint" />
          </mxGeometry>
        </mxCell>
      </root>
    </mxGraphModel>
  </diagram>
</mxfile>
